<svg xmlns="http://www.w3.org/2000/svg" width="24.416" height="27.002" viewBox="0 0 24.416 27.002">
  <g id="noun_premium_542312" transform="translate(-4 -2)">
    <g id="Group_1" data-name="Group 1" transform="translate(0 -1020.362)">
      <path id="Path_1" data-name="Path 1" d="M4,2V27H14V26H5V3H19V6.5a.5.5,0,0,0,.5.5H23v9.574h1V6.535h0a.5.5,0,0,0-.145-.385l-4-4a.508.508,0,0,0-.51-.123V2ZM20,3.711,22.293,6H20ZM6.969,5V6H18V5Zm.084,3V9H21V8ZM7,11v1H21V11Zm0,3v1H21V14Zm0,3v1H21V17Zm15.361.5a.5.5,0,0,0-.5.5v1.539s0,.007,0,.01a1.065,1.065,0,0,1-.242.5,9.867,9.867,0,0,1-.711.8,4.973,4.973,0,0,0-1.074,1.406H19V20.74a.5.5,0,0,0-.5-.5h-3a.5.5,0,0,0-.5.5V28.5a.5.5,0,0,0,.5.5h3a.5.5,0,0,0,.5-.5v-.688h.678l-.08-.154-.018-.037a1.286,1.286,0,0,0,.115.215h0a1.314,1.314,0,0,0,.15.188l.006.01a1.3,1.3,0,0,0,.186.154,1.266,1.266,0,0,0,.215.117,1.21,1.21,0,0,0,.246.078l.039.01a1.72,1.72,0,0,0,.215.02H25.8a.5.5,0,0,0,.084-.006h.625a1.2,1.2,0,0,0,1.117-1.283,1.443,1.443,0,0,0-.123-.557,1.3,1.3,0,0,0,.52-1.027,1.332,1.332,0,0,0-.15-.584,1.219,1.219,0,0,0,.246-1.818,1.255,1.255,0,0,0,.3-.789,1.29,1.29,0,0,0-1.283-1.281h-2a1.251,1.251,0,0,0-.422.076,3.457,3.457,0,0,0-.258-.629V19.428a1.99,1.99,0,0,0-2.043-1.922h-.045Zm.5,1.172a.873.873,0,0,1,.588.754V20.59a.5.5,0,0,0,.008.092l.008.031a.5.5,0,0,0,.057.156,2.787,2.787,0,0,1,.148,2.271,1.5,1.5,0,0,1-1.307,1.1H20.18a.5.5,0,1,0,0,1h2.184a2.15,2.15,0,0,0,1.379-.523l0,0a1.272,1.272,0,0,0-.031,1.59,1.425,1.425,0,0,0-.264.814,1.447,1.447,0,0,0,.047.289H20.754a.218.218,0,0,1-.061-.01.126.126,0,0,1-.041-.014c-.018-.01-.035-.016-.049-.025a.394.394,0,0,1-.041-.035.268.268,0,0,1-.031-.037.307.307,0,0,1-.027-.049q-.008-.019-.018-.037l-.061-.117a.5.5,0,0,0-.443-.27H19V23.258h.775a.5.5,0,0,0,.9-.3,3.21,3.21,0,0,1,.953-1.42,10.077,10.077,0,0,0,.789-.891,2.408,2.408,0,0,0,.279-.7.5.5,0,0,0,.16-.361v-.916ZM7,20v1h7.109V20Zm9,1.236h2V28H16Zm9.129.828h2a.282.282,0,1,1,0,.564h-2a.282.282,0,1,1,0-.564Zm-.408,1.584h2.424a.283.283,0,0,1,0,.566H24.721a.283.283,0,0,1,0-.566Zm-.076,1.605h2.182c.082,0,.193.088.193.283s-.111.281-.193.281H24.645c-.082,0-.2-.086-.2-.281S24.562,25.258,24.645,25.258ZM16.965,26A.518.518,0,1,0,17,26h-.035Zm7.6.84h1.939s.117.061.117.283-.116.283-.117.283H24.566s-.117-.061-.117-.283S24.565,26.842,24.566,26.842Z" transform="translate(0 1020.362)" fill="#004faa" fill-rule="evenodd"/>
    </g>
  </g>
</svg>
