<svg xmlns="http://www.w3.org/2000/svg" width="67.994" height="83.199" viewBox="0 0 67.994 83.199">
  <g id="noun_profile_76868" transform="translate(-16.003 -8.401)">
    <path id="Path_1" data-name="Path 1" d="M75.822,91.6H24.178A8.184,8.184,0,0,1,16,83.425V16.576A8.184,8.184,0,0,1,24.178,8.4H45.891a1.6,1.6,0,0,1,0,3.2H24.178A4.981,4.981,0,0,0,19.2,16.576V83.425A4.982,4.982,0,0,0,24.178,88.4H75.823A4.982,4.982,0,0,0,80.8,83.425V16.576A4.981,4.981,0,0,0,75.823,11.6H54.109a1.6,1.6,0,0,1,0-3.2H75.822A8.184,8.184,0,0,1,84,16.576V83.425A8.184,8.184,0,0,1,75.822,91.6Z" fill="#004faa"/>
    <path id="Path_2" data-name="Path 2" d="M74.178,30.893H53.631a1.6,1.6,0,0,1,0-3.2H74.178a1.6,1.6,0,0,1,0,3.2Z" fill="#004faa"/>
    <path id="Path_3" data-name="Path 3" d="M74.178,38.11H53.631a1.6,1.6,0,0,1,0-3.2H74.178a1.6,1.6,0,1,1,0,3.2Z" fill="#004faa"/>
    <path id="Path_4" data-name="Path 4" d="M74.178,45.284H53.631a1.6,1.6,0,0,1,0-3.2H74.178a1.6,1.6,0,0,1,0,3.2Z" fill="#004faa"/>
    <path id="Path_5" data-name="Path 5" d="M74.178,55.859H25.822a1.6,1.6,0,1,1,0-3.2H74.177a1.6,1.6,0,0,1,0,3.2Z" fill="#004faa"/>
    <path id="Path_6" data-name="Path 6" d="M74.178,63.077H25.822a1.6,1.6,0,1,1,0-3.2H74.177a1.6,1.6,0,0,1,0,3.2Z" fill="#004faa"/>
    <path id="Path_7" data-name="Path 7" d="M74.178,70.249H25.822a1.6,1.6,0,1,1,0-3.2H74.177a1.6,1.6,0,0,1,0,3.2Z" fill="#004faa"/>
    <path id="Path_8" data-name="Path 8" d="M63.9,77.464H25.822a1.6,1.6,0,1,1,0-3.2H63.9a1.6,1.6,0,0,1,0,3.2Z" fill="#004faa"/>
    <path id="Path_9" data-name="Path 9" d="M41.5,34.1a6.943,6.943,0,1,0-9.984,0A12.3,12.3,0,0,0,24.223,45.32a1.6,1.6,0,0,0,3.2,0,9.084,9.084,0,1,1,18.168,0,1.6,1.6,0,1,0,3.2,0A12.293,12.293,0,0,0,41.5,34.1Zm-8.735-4.813a3.743,3.743,0,1,1,3.743,3.742A3.747,3.747,0,0,1,32.764,29.292Z" fill="#004faa"/>
  </g>
</svg>
