<svg id="noun_Download_3121081" xmlns="http://www.w3.org/2000/svg" width="64" height="64" viewBox="0 0 64 64">
  <g id="Group_1" data-name="Group 1">
    <path id="Path_1" data-name="Path 1" d="M0,46a2,2,0,0,0,2,2H24a2,2,0,0,0,0-4H4V4H21.171l7.415,7.414A2,2,0,0,0,30,12H60V44H40a2,2,0,0,0,0,4H62a2,2,0,0,0,2-2V10a2,2,0,0,0-2-2H30.829L23.414.586A2,2,0,0,0,22,0H2A2,2,0,0,0,0,2Z" fill="#084fa9"/>
    <path id="Path_2" data-name="Path 2" d="M32,28a2,2,0,0,0-2,2V57.171l-4.586-4.585a2,2,0,0,0-2.828,2.828l8,8a2,2,0,0,0,2.828,0l8-8a2,2,0,0,0-2.828-2.828L34,57.171V30A2,2,0,0,0,32,28Z" fill="#084fa9"/>
  </g>
</svg>
