<svg xmlns="http://www.w3.org/2000/svg" viewBox="0 0 100 100" width="100" height="100">
	<style>
		tspan { white-space:pre }
		.shp0 { fill: #004fAA } 
	</style>
	<path id="Layer" fill-rule="evenodd" class="shp0" d="M82.16 81.65C79.39 84.43 76.26 86.83 72.87 88.8C69.47 90.76 65.83 92.27 62.04 93.29C58.24 94.31 54.34 94.82 50.41 94.82C49.01 94.82 47.62 94.75 46.26 94.62L45.87 94.62C44.87 94.52 43.78 94.37 42.75 94.2L42.17 94.09L41.42 93.93L41.07 93.86L40.41 93.72L39.82 93.58L39.42 93.47L39.33 93.47L39 93.3L38.28 93.09L37.81 92.94L37.52 92.94L37.22 92.85L37.5 92.93L37.28 92.85L36.95 92.74L36.86 92.74L37.04 92.8L36.81 92.74L36.25 92.55L35.72 92.36L35.57 92.3L35.93 92.3L35.64 92.18L35.13 92L34.92 91.92L34.77 91.85L34.41 91.71L34.16 91.59L34.29 91.59L34.2 91.49L34 91.36L33.55 91.13L33 90.8L32.72 90.66L32.51 90.59L32.26 90.48L32 90.29L31.76 90.16L31.54 90.08L31.2 90L31 89.84L31.18 89.91L31.29 89.91L31.64 90.03L31.77 90.03L31.77 89.94L31.29 89.6L30.93 89.31L30.43 88.96L30.02 88.67L29.66 88.38L29.29 88.1L29.29 88.01L29.55 88.2L30.08 88.64L29.82 88.36L29.35 87.95L28.85 87.51L28.69 87.29L28.3 87L27.74 86.55L27.16 86.09L26.71 85.62L26.71 85.47L26.53 85.16L26.53 84.64L26.44 84.43L26.91 84.43L27 84.3L26.78 84.06L26.93 83.95L26.6 83.59L26.46 83.26L26.27 82.92L26.05 82.66L26.05 82.48L25.65 81.94L25.5 81.66L25.5 81.53L25.15 81.07L24.85 80.56L24.03 79.45L23.77 79L23.69 78.74L23.56 78.64L23.56 78.46L23.87 78.58L23.87 78.35L23.58 77.35L23.74 77.16L23.74 76.68L23.61 75.92L23.16 75L22.67 74.23L22.24 73.66L21.88 73.66L21.48 73.51L21.08 73.24L20.58 72.81L19.92 72.28L19.23 72.14L18.99 72.22L18.29 71.92L18.19 71.87L17.91 72.31L17.68 71.66L17 71.08L16.36 70.69L16 70.57L16 70.8L16.14 71.21L16 71.14L16 71.58L15.84 71.35L15.84 70.73L15.79 70.55L15.28 70.16L14.96 70.16L15.03 70.57L15.03 70.7L14.86 70.47L14.73 70.14L14.89 70.14L14.79 69.29L14.52 68.85L13.96 68.22L13.44 67.14L12.78 66.26L12.4 66.08L12 65.81L11.61 65.89L11.41 65.66L11.32 65.79L10.86 65.19L10.57 65L10.34 64.49L10.02 64.09L9.75 63.83L9.52 63.83L9.39 63.21L9 62.76L8.87 62.41L8.87 62.33L8.73 62.11L8.45 62.68L8.06 62.23L8 62.41L7.86 62.21L7.69 61.68L7.6 61.5L7.53 61.5L7.36 61.09L7.45 61.59L7.45 62.08L7.43 62L7.27 61.46L7.27 61.05L7.19 60.83L7.19 61.86C7.19 61.88 7.19 61.9 7.19 61.92L7.16 61.83L7.32 62.47L7.44 62.88L7.44 63.03C7.23 62.34 7.04 61.64 6.86 60.94C6.68 60.24 6.52 59.53 6.38 58.82C6.24 58.11 6.12 57.4 6.01 56.68C5.9 55.97 5.81 55.25 5.74 54.53L5.74 54.38L5.67 53.88L5.61 53.52L5.61 53.46C5.53 52.32 5.48 51.16 5.48 50C5.48 49.22 5.51 48.44 5.55 47.66C5.59 46.88 5.66 46.1 5.74 45.32C5.82 44.54 5.93 43.77 6.05 42.99C6.17 42.22 6.32 41.45 6.48 40.69L6.55 40.39L6.55 39.62C6.67 39.13 6.79 38.62 6.93 38.14L6.93 38.28L6.83 38.65L7 39L7.09 38.68L7.29 37.97L7.38 37.63C7.45 37.37 7.48 37.28 7.52 37.15L7.47 37.35L7.58 37.05L7.75 36.55L7.86 36.2L7.91 36.04L7.91 35.98L8 36L8.09 35.87L8.09 35.64L8 35.68L8.07 35.51L8.2 35.33L8.2 35.27L8.34 34.94L8.34 35.1L8.44 34.91L8.56 34.6L8.56 34.35L8.66 34.14L8.78 33.83L9 33.5L9.08 33.35L9.15 33.24L9.21 33.14L9.3 33L9.4 32.82L9.54 32.56L9.62 32.44L9.62 32.62L9.7 32.52L10 32.1L10.29 31.79L10.38 31.71L10.68 31.28L10.79 31.12L10.79 31.21L10.71 31.37L10.64 31.48L10.58 31.64L10.71 31.75L10.63 31.86L10.4 31.86L10.11 32.3L9.84 32.77L9.77 33L9.77 33.28L9.85 33.28L10 33L10.17 32.73L10.29 32.53L10.39 32.41L10.52 32.35L11.13 31.87L11.19 31.73L11.19 31.59L11.28 31.48L11.57 31.29L11.71 31.13C11.71 31.12 11.72 31.1 11.72 31.09C11.73 31.07 11.73 31.06 11.74 31.05C11.75 31.03 11.75 31.02 11.76 31.01C11.77 31 11.77 30.98 11.78 30.97L11.66 30.97L11.89 30.51L11.89 30.41L11.72 30.61L11.61 30.79L11.53 30.92L11.32 31.2L11.2 31.45L11.1 31.5L11 31.5L10.89 31.41L10.89 31.32L10.94 31.14L10.94 30.69L11.02 30.48L11.16 30.11L11.3 29.88L11.45 29.61L11.45 29.53L11.34 29.65L11.27 29.73L11.27 29.66L11.34 29.53L11.46 29.37L11.64 29.2L11.78 29.04L11.94 28.78L12.11 28.37L12.11 28.27L12.02 28.27L11.67 28.51L11.3 28.9L11.15 29.09L10.77 29.66L10.47 30.13L10.37 30.27L10.37 30.22L10.7 29.7L10.85 29.45L10.98 29.2L11.16 28.95L11.5 28.44L11.71 28.19L11.79 28.19L11.96 27.92L12.28 27.48L12.45 27.36L12.96 27.26L13.49 27.26L13.76 27.05L13.98 26.84L14.26 26.53L14.45 26.32L14.56 26.26L14.84 26.26L15.04 26.09L15.32 25.8L15.54 25.57L15.54 25.33L15.63 25.27L15.74 25.19L16.1 24.71L16.1 24.49L16.15 24.27L16.02 24.35L15.89 24.46L15.83 24.46L15.83 24.39L16.09 24.05L16.09 23.93L16.08 23.93L16.1 23.92C16.47 23.72 16.47 23.72 16.61 23.54L16.61 23.39L16.45 23.39L16.54 23.09L16.44 23.14L16.44 23.01L16.35 23.07L16.3 23.07L16.37 22.91L16.57 22.57L16.69 22.29L16.76 22.1L16.76 21.89L16.84 21.78L16.9 21.78L16.9 21.85L17.01 21.78L17.24 21.55L17.37 21.36L17.37 21.28L17.43 21.18L17.65 20.91L17.75 20.73L17.83 20.59L17.91 20.47L17.99 20.34L18.1 20.2L18.17 20.11L18.24 20.01L18.32 19.9L18.42 19.77L18.49 19.68L18.66 19.45L18.8 19.25L19 19L19.09 18.89L19.41 18.49L19.49 18.38L19.36 18.49L19.11 18.74L18.94 18.89L18.75 19.06L18.68 19.15L18.59 19.26L18.43 19.4L18.33 19.49L18.14 19.71L18.09 19.71L17.91 19.89L17.97 19.79L17.91 19.85L17.75 20.02L17.6 20.15L17.46 20.25L17.56 20.12L17.62 20.01L17.81 19.76L17.81 19.7L18.05 19.43L18.2 19.23L18.37 19.06L18.86 18.54L19.09 18.31L19.34 18.07L19.42 17.98L19.31 18.07L19.3 18L19.39 17.88L19.59 17.68L19.68 17.57L19.87 17.38L19.94 17.3L20.12 17.12L20.22 17.01L20.28 16.95L20.08 17.11L20.17 17.01C20.71 16.52 21.26 16.03 21.83 15.56L22.06 15.37L22.19 15.27L22.35 15.14L22.45 15.14L22.23 15.33L21.89 15.64L21.79 15.74L21.16 16.29L21.08 16.41L21 16.41L20.75 16.68L20.42 17.08L20.23 17.35L20.29 17.35L20.6 17.08L21.36 16.24L21.63 15.93L21.76 15.84L21.61 16.06L21.4 16.34L21.74 16.11L22.05 15.86L22.17 15.69L22.57 15.34L22.85 15.08L23.05 14.86L23.05 14.8L23.29 14.56L23.63 14.28L23.81 14.15L24.22 13.85L24.51 13.64L24.62 13.58L24.41 13.78L24.3 13.91L23.93 14.24L23.48 14.7L23.91 14.4L24.38 14.13L24.75 13.86L25.31 13.54L25.55 13.37L25.65 13.26L25.55 13.26C25.62 13.21 25.69 13.16 25.76 13.11C25.83 13.05 25.9 13 25.97 12.94C26.03 12.89 26.1 12.83 26.17 12.78C26.23 12.72 26.3 12.66 26.36 12.6L26.36 12.53L26.27 12.53L26.57 12.29L26.57 12.22L26.76 12.06L27.17 11.79L27.36 11.69L27.48 11.69L27.67 11.54L28 11.4L28.21 11.29L28.54 11.11L28.73 10.98L28.88 10.89L28.91 10.87L29.1 10.76L29.37 10.6L29.28 10.6L29.61 10.42L29.56 10.42L29.38 10.51L29.63 10.37L29.71 10.37L30 10.23L30.18 10.13L30.37 10.03L30.27 10.03L29.93 10.19L30.12 10.09L30.43 9.93L30.72 9.78L30.78 9.78L31.58 9.39L31.68 9.34C32.04 9.17 32.4 9 32.77 8.85L32.74 8.86L32.8 8.83C32.99 8.76 33.17 8.68 33.35 8.61L33.41 8.58L33.39 8.59C33.42 8.58 33.45 8.57 33.48 8.55L34.32 8.22L34.46 8.22L34.86 8.06L35.22 7.93L36 7.57L36.12 7.57C36.35 7.49 36.58 7.42 36.81 7.34L36.79 7.35L37.17 7.23L37.46 7.23L37.66 7.17L37.21 7.4L37 7.45L36.74 7.56L36.05 7.83L35.77 8L35.42 8.18L35.02 8.35L34.58 8.55L34.24 8.73L33.79 8.94L33.58 9.07L33.29 9.22L32.73 9.46L32.45 9.61L31.94 9.88L31.76 10.02L32 10L31.69 10.25L31.61 10.37L31.34 10.6L31.21 10.68L31.1 10.68L31.24 10.49L30.92 10.49L30.74 10.64L30.52 10.93L30.61 10.93L30.42 11.11L30.1 11.32L30 11.38L30.15 11.25L30.31 11.1L30.44 10.99L30.44 10.89L30.36 10.89L29.62 11.31L29.49 11.44L29.37 11.59L29.59 11.59L29.96 11.4L29.82 11.49L29.24 11.89L29 12L28.66 12.12L28.18 12.43L27.37 12.93L27.11 13.16L27.04 13.31L26.82 13.46L26.39 13.72L26.09 14.01L25.87 14.34L25.69 14.55L24.93 15.22L24.93 15.32L24.57 15.7L24.45 15.89L24.28 16.12L24.1 16.42L23.54 17.16L23.42 17.46L23.18 17.86L23.24 18.09L23.33 18.09L23.33 18.25L23.46 18.25L23.46 18.49L23.68 18.87L24.25 18.45L24.62 18.09C24.74 17.93 24.87 17.78 25 17.63L25.3 17.43L25.81 16.76L25.81 16.69L26.05 16.53L26.36 16.47L26.78 16.15L27.27 15.76L27.47 15.6L27.7 15.27L27.95 15.17L28.25 14.87L28.25 14.75L28.43 14.58L28.52 14.7L28.63 14.7L28.77 14.54L29.06 14.33L29.41 14.24L29.66 14.14L29.98 13.86L30.21 13.71L30.26 13.71L30 14L29.86 14.13L30.16 14.03L30.58 13.96L31.36 13.65L32.07 13.21L32.66 12.82L33.09 12.62L33.4 12.34L33.63 12.34L33.74 12.44L33.93 12.32L34.23 12.32L34.5 12.23L34.67 12.23L35.75 12L36.05 11.89L36.49 11.69L37.27 11.39L38.06 11.04L37.55 11.16L37.3 11.05L37.1 10.92L36.67 11.07L36.74 10.99L37.22 10.73L37.45 10.61L37.81 10.28L37.91 10.28L37.91 10.8L38.12 10.8L38.45 10.69L38.74 10.4L38.96 10.21L39 9.87L39 9.55L39.06 9.41L39.33 9.32L39.33 9.47L39.42 9.47L39.74 9.3L40 9.13L39.9 9.03L39.64 9.08L39.23 9.2L39.17 9.11L39.47 9L39.84 8.88L40.06 8.71L40.2 8.88L40.61 8.88L41 8.66L41 8.36L41.22 8.28L41.7 8.28L42.06 8.09L42 8.09L41.83 8L41.92 7.87L42.08 7.76L42.48 7.76L42.77 7.65L43.06 7.45L43.22 7.29L42.97 7.29L43.05 7.19L43.12 7.12L43.21 7L43.43 7L43.69 6.93L44.06 6.93L44.22 6.86L44.39 6.74L44.09 6.74L44.26 6.64L44.43 6.58L44.6 6.58L44.7 6.5L44.7 6.44L44.41 6.53L44.18 6.58L44.3 6.52L44.67 6.41L45.28 6.17L45.48 6.17L45.86 6L46.19 5.89L46.44 5.83L46.9 5.83C46.76 5.83 46.63 5.83 46.5 5.89L48.25 5.89C48.33 5.88 48.43 5.86 48.53 5.85L48.45 5.85L48.23 5.89C48.23 5.89 48.19 5.9 48.15 5.9C47.67 5.97 47.37 6.03 46.97 6.1L47.47 6.02L47.88 5.96L48.32 5.89L48.38 5.89L48.74 5.83L48.56 5.83L48.45 5.85L47.69 5.85C48.06 5.85 48.19 5.85 48.6 5.78C49.09 5.78 49.75 5.78 50.28 5.78C50.27 5.81 50.26 5.84 50.26 5.87L50.3 5.78C50.3 5.78 50.31 5.78 50.31 5.78L50.31 5.85L50.39 5.85L50.41 6L50.35 6.06L50.41 6.13L50.5 6.2L50.6 6.25L50.79 6.25L50.79 6.13L50.84 6.13L50.84 6.08L51 6.08L51 6.17C51 6.17 51.1 6.17 51.14 6.17L51.14 6.3L51 6.32L51 6.38L50.89 6.38L50.98 6.47L51.13 6.55L51.31 6.55L51.31 6.6L51.2 6.6L51.33 6.66L51.42 6.74L51.49 6.74L51.49 6.81L51.55 6.65L51.63 6.58L51.63 6.19L51.84 6.19L51.87 6.21L51.75 6L51.4 6L51.4 5.94L51.32 5.94L51.32 5.78L53.94 5.78L54.66 5.84L55.44 5.93C56.01 5.99 56.37 6.04 56.59 6.08C57.08 6.15 57.59 6.27 58.05 6.31L59.1 6C59.75 6.14 60.4 6.29 61.1 6.42L61.27 6.42L61.59 6.5L61.51 6.5L61.27 6.44L61.13 6.44C61.73 6.58 62.32 6.74 62.91 6.91L62.57 6.91L62.83 6.99L63 7L63.17 7L63.5 7.1L63.65 7.1L63.87 7.17L63.76 7.17L64 7.26L64.06 7.26L64.39 7.37L64.57 7.37L64.77 7.45L64.95 7.45L65.18 7.55L65.32 7.55L65.47 7.62L65.54 7.62L65.74 7.7L65.65 7.7L65.84 7.76L66.02 7.76L66.19 7.82L66.43 7.91L66.51 7.91L66.77 8L67.01 8.12L67.12 8.17L66.89 8.17L67.08 8.28L66.94 8.28L66.94 8.34L67.26 8.51L67.68 8.69L67.97 8.84L68.49 9.04L68.67 9.1L68.94 9.21L69.27 9.38L69.38 9.46L69.04 9.34L68.6 9.16L68.24 9.05L68.05 9.05L67.82 8.95L67.74 8.95L67.93 9.09L68.08 9.09L68.23 9.17L68.48 9.26L68.65 9.34L68.4 9.34L68.25 9.29L68.39 9.41L69 9.7L69.4 9.83L69.59 9.92L69.8 10.01L69.86 10.07L69.24 9.83L68.88 9.83L68.5 10L68.26 9.89L67.9 9.66L67.53 9.45L67.08 9.24L67 9.24L67.31 9.4L67.82 9.69L67.96 9.87L68.11 9.98L68.24 10.08L69.24 10.57L69.49 10.72L70.13 11.2L70.42 11.38L70.87 11.69L71.04 11.69L71.04 11.58L71.41 11.72L71.93 11.95L72.45 12.28L72.64 12.47L72.84 12.61L73.39 12.87L73.14 12.87L72.68 12.6L72.12 12.18L71.47 11.85L71.47 12.02L72.47 12.68L72.8 13.07L72.99 13.22L73.17 13.6L73.42 13.88L73 13.71L72.83 13.77L72.54 13.65L72.46 13.65L72.29 13.59L72.06 13.36L72.14 13.36L72.42 13.52L72.42 13.4L72.73 13.57L72.67 13.47L72.78 13.47L72.56 13.31L72.56 13.22L72.37 13L72.21 12.86L72.21 12.71L72.1 12.6L71.87 12.43L71.6 12.21L71.6 12.13L70.91 11.77L70.28 11.36L69.99 11.14L69.54 10.86L69 10.55L68.76 10.41L68.11 10.11L68 10L67.76 9.8L67.5 9.63L66.81 9.25L66.37 9.12L65.97 9.12L67.16 9.93L67.32 10.19L67.52 10.35L67.81 10.51L67.89 10.51L68.31 10.81L68.57 10.99L68.66 11.1L68.87 11.26L69.44 11.47L69.99 11.8L70.23 11.89L70.56 12.15L70.63 12.3L69.83 11.9L69.49 11.77L68.88 11.55L68.47 11.4L67.97 11.22L67.16 11.13L66.86 10.97L66.4 10.79L66.28 10.79L66.55 10.99L66.81 11.09L67 11.18L67.28 11.24L67.66 11.5L68.09 11.75L68.24 11.89L68.08 11.89L68.3 12.07L68.23 12.07L68 12.12L67.88 11.94L67.45 11.76L67.45 12.07L66.94 12.07L66.94 12.33L66.69 12.33L66.39 12.24L66.3 12.18L66.51 12.18L66.27 12L66.13 11.78L65.9 12L66.08 12.24L65.86 12.12L65.42 12.33L65.42 12.47L65.31 12.62L65.31 12.71L65.06 12.81L65.34 13.22L65.26 13.36L64.78 13.36L64.42 13.12L64.18 13L63.98 12.77L64.05 12.69L64.19 12.59L64.48 12.59L64 12.27L63.78 12.1L63.61 12L62.82 12L63.2 12.19L63.52 12.58L63.72 13.04L63.95 13.04L64.05 13.11L64.24 13.31L64.38 13.52L64.38 13.82L64.21 13.82L64.05 13.68L63.73 13.61L63.48 13.61L63.48 13.83L63.21 13.96L63.13 14.15L63.07 14.34L63.15 14.48L63.52 14.77L63.76 15.04L63.54 15.12L63.04 14.92L62.73 14.92L62.53 14.83L62.07 14.59L62 14.8L62.28 15.08L62.55 15.23L62.88 15.29L62.99 15.55L62.81 15.65L62.6 15.57L62.27 15.49L62.18 15.39L62.01 15.29L61.74 15.29L61.49 15.21L61.34 14.94L61.17 14.75L60.91 14.41L60.91 14.27L60.52 13.85L60.12 13.69L59.96 13.59L59.65 13.44L59.36 13.22L59.14 13L59.79 13.26L60.29 13.37L60.79 13.52L61.54 13.69L62.24 13.79L62.71 13.61L62.95 13.19L62.79 13L62.49 12.7L62.19 12.56L61.84 12.36L61.63 12.36L61.34 12.2L61.17 12.2L59.93 11.65L59.43 11.53L59.33 11.53L59.12 11.41L58.9 11.48L58.67 11.43L58.43 11.43L58.29 11.33L58.53 11.23L58 11.05L58 11.23L57.47 11.09L57.36 11.18L57.22 11L56.93 10.83L57.22 10.9L57.35 10.78L57.53 10.71L57.18 10.49L56.82 10.43L56.61 10.32L56.49 10.64L56.32 10.39L56.4 10.39L56.31 10.28L56 10.2L55.93 10.32L56 10.44L55.9 10.69L55.71 10.33L55.39 10.86L55.26 10.73L55.37 10.51L55.47 10.34L55.47 10.26L55.34 10.2L55.22 10.36L54.95 10.36L54.95 10.56L54.77 10.47L54.63 10.74L54.71 10.87L54.71 10.96L54.55 10.81L54.55 10.65L54.64 10.5L54.64 10.38L54.53 10.38L54.47 10.5L54.18 10.5L54.18 10.58L54.43 10.8L54 10.8L54.27 10.99L54.08 10.99L54 11L53.87 10.89L53.71 10.89L53.89 11.02L53.89 11.24L53.77 11.18L53.67 11L53.51 11.06L53.36 10.8L53.04 10.89L53.14 11.13L52.97 11.13L52.97 11.29L52.76 11.19L52.6 11.27L52.43 11.54L52.69 11.54L52.77 11.69L52.82 11.8L52.7 11.8L52.55 11.73L52.49 11.82L52.23 11.7L52.07 11.82L52.13 11.48L51.83 11.74L51.65 11.88L51.44 12.15L51.07 12.32L50.91 12.48L51.84 12.09L51.95 12.09L52.09 12.01L52.2 12L52.36 12.06L52.36 12.35L52.21 12.35L52.09 12.23L51.96 12.37L51.76 12.5L51.69 12.75L51.53 12.89L51.42 13.13L51.06 13.55L51.06 13.84L50.73 13.84L50.73 14.18L50.65 14.35L50.65 14.6L50.33 14.6L50.28 14.66L49.98 14.66L50.26 14.96L50.18 15.08L50.1 15.03L49.51 15.29L49.41 15.47L49.19 15.57L49 16L48.73 15.78L48.58 15.84L48.66 16.13L48.45 16.18L48.24 16.3L47.8 16.49L48.08 16.63L47.61 16.63L47.3 16.82L47.02 16.94L47.02 17.13L46.69 17.13L46.51 17.37L46.68 17.64L46.6 17.84L46.65 17.92L46.43 18.12L46.43 18.29L46.35 18.63L46.63 18.72L47.06 18.57L47.14 18.75L46.82 18.97L46.59 18.92L46.38 19.08L46.3 19.42L46.94 19.42L46.77 19.64L46.51 19.82L46.94 20.25L47.79 20.48L48.96 19.69L49.38 19.6L49.54 19.19L49.78 19.5L49.93 19.98L50.18 20.4L50.4 21L50.72 21.54L51 22L51.18 22.27L51.18 22.79L51.89 22.71L51.89 22.42L52.09 22.22L52.42 22.13L52.81 22.18L52.96 21.9L53.19 21.99L53.55 21.24L53.28 21.45L53.28 21.04L53.4 19.98L54 19.69L54.1 19.38L54.39 18.92L53.79 18.34L53.38 18.23L53.25 17.62L53.4 17.1L53.5 16.7L53.73 16.46L53.83 16.14L54.48 15.79L55.15 15.22L55 14.89L55.12 14.32L55.37 14.08L56.1 14.08L56.71 14.39L56.71 14.76L56.57 14.76L56.44 15.23L56.14 15.47L55.76 15.77L55.69 15.97L55.38 16.14L55.15 16.59L55.28 16.77L55.4 17.13L55.6 17.53L55.54 18.29L56.1 18.5L56.47 18.68L57.1 18.81L58.02 18.58L58.94 18.4L59.31 17.9L59.37 18.28L59.81 18.64L60.31 18.75L59.92 18.83L59.4 19.22L58.98 19.22L58.43 19.12L57.23 19.33L56.95 19.66L57.13 20.03L57.31 20.2L57.69 20.25L57.62 20.67L57.7 21.21L57.11 21.21L56.65 20.7L56.12 20.96L55.95 21.43L55.83 21.66L56 22L56.18 22.92L56.02 23.27L55.93 23.44L55.55 23.16L55.27 23.44L54.93 23.62L54.59 23.23L53.21 23.62L52.21 23.95L52.03 24.1L51.57 23.81L51.62 23.45L51.04 23.6L50.04 24.05L49.97 23.76L49.49 23.68L48.88 23L49.68 23.06L49.46 22.67L49.16 22.67L49.35 22.29L49.77 22.08L49.47 21.79L49.47 21.38L49.54 20.87L49.3 20.87L49.09 21.3L48.69 21.3L48.69 21.56L48.34 21.39L48 22L48.21 23L48.4 23.57L48.4 23.75L48.58 24.12L48.24 24.54L47.79 24.3L47.28 24.38L47.08 24.58L46.41 24.58L46.18 24.7L46.1 25.02L45.79 25.02L45.63 25L45.44 25.22L45.15 25.58L45.04 25.91L44.49 26.36L43.76 26.63L43.52 26.69L43.28 27.32L43.14 27.53L42.4 27.69L42.04 28.15L41.62 28.15L41.23 27.86L40.91 27.86L40.81 28.16L40.92 28.44L40.8 28.89L40.08 28.89L39.84 28.66L39.6 28.66L38.95 28.74L38.72 29.05L38.72 29.48L39.57 29.79L39.91 29.89L40.32 30.12L40.53 30.73L40.95 31L40.88 31.75L40.65 32.75L40.26 33.59L36.44 33.43L35.92 33.21L35.46 33.56L34.96 33.74L35.17 34.39L35.06 35.04L35.06 35.61L34.28 37.46L34.62 37.84L34.72 38.34L34.58 39.16L35.11 39.31L35.69 39.18L36.07 39.18L36.88 40.09L37.07 39.83L37.49 39.83L37.8 39.66L38.35 39.54L39.35 39.54L39.69 39.28L40.54 38.7L40.61 38.32L41.2 37.72L41.13 37.23L41.28 36.61L41.8 36L42.1 35.54L43.74 34.77L43.74 34.16L43.89 33.66L44.4 33.43L45.33 33.56L46.04 33.78L46.79 33.3L47.48 33.04L48.25 32.59L49.17 33.19L49.82 34.19L50.7 34.91L51.81 35.52L52.68 36.09L53.21 36.51L53.46 37.32L53.28 37.89L53.41 38.29L53.85 37.51L54.22 37.2L53.85 36.6L54 36.3L54.32 36.23L55.11 36.56L55.11 36.36L54.11 35.56L53.24 34.84L53.02 34.84L52.31 34.5L51.82 33.65L50.8 32.62L50.8 31.9L51.6 31.43L51.88 31.95L52.45 32.19L53.14 33.19L53.75 33.5L54 33.74L55.73 34.53L56 35L55.83 36.12L56.47 36.92L56.8 37.17L57 37.79L57.48 37.79L58.17 38.04L57.37 38.11L57.56 38.76L57.64 39.11L58.19 39.37L58.7 39.64L58.52 38.86L59.05 38.86L58.68 38.55L58.68 38.36L59.12 38.46L59.43 38.33L59.43 37.97L59.13 37.71L58.51 37.71L58.73 37.3L58.07 36.44L58.07 36.2L58.27 36.14L58.75 36.38L59.05 36.32L59.05 35.87L59.34 35.71L59.63 35.9L60.16 35.62L61.1 36.07L61.74 35.64L62.25 35.64L62.37 35.28L62.11 35.13L61.58 34.01L62.19 33.22L62.42 32.22L62.72 31.8L63.43 30.54L64.15 30.43L64.29 30.89L65.39 31.06L64.6 31.59L65.32 31.92L65.44 32.47L67.37 31.89L66.68 31.7L66.05 31.12L66.75 30.55L68.6 30.11L67.94 30.62L68.27 31.02L67.55 31.9C68.55 32.57 69.82 33.45 70.79 34.13L71.17 34.9L70.29 35.61L66.01 34.74L64.34 35.46L62.81 35.55L62.51 36.13L60.91 36.82L61.22 37.04L61.42 38.56L62.69 39.39L63.45 39.99L64.66 39.41L65.66 40.04L66.99 39.43L68.05 39.43L67.99 41.43L67 44.48L64.54 44.19L63.45 44.67L58.17 42.92L56.45 43.83L56.65 44.56L56.06 45.16L53.23 44.16L53 43.47L50.19 42.83L48.88 42L49.28 41.56L49.67 41.14C49.57 39.24 49.57 39.24 46.94 39.21L42.15 39.69L39.43 41.11L36.67 40.42L35.77 42L34.64 42.58L33.64 44.03C33.64 44.44 33.64 44.85 33.58 45.27L32.69 46.61L31.1 47.7L29.77 50C29.37 51 28.82 52.36 28.44 53.38L29.07 55.62L28.82 58.53L29.19 60.28C29.99 61.28 31.04 62.53 31.84 63.47L32.64 64.7L36.1 66.86L38.1 66.38L40.03 66.66L43.22 65.42L44.85 65.55L46 66.93L47.88 66.65L48.79 67.17L48.22 70.71C48.91 71.56 49.84 72.71 50.52 73.55L51.36 75.69L51.62 77.69C51.22 78.77 50.68 80.2 50.29 81.27C50.71 82.14 51.29 83.27 51.66 84.18C51.71 84.88 51.8 85.81 51.84 86.51C52.15 87.24 52.57 88.21 52.84 88.95L52.72 89.08L52.61 89.24L52.69 89.49L52.69 89.71L52.83 89.8L52.98 89.95L53.13 89.95L53.36 89.81L53.51 89.73L53.77 89.73L53.92 89.66L54.39 89.51L54.83 89.61L54.99 89.55L55.24 89.55L55.24 89.44L55.65 89.44L56.24 89.15L57.24 88.43L58.16 87.64L59.08 86.96L59.65 86.03L59.45 85.92L60.14 85.53L60.88 85.26L61.3 85L61.57 84.48L61.78 84.11L61.94 83.45L61.94 82.65L62.15 82.65L62.72 82.12L63.2 82L63.6 81.6L64.2 81.22L64.9 81.12L65.61 80.56L66.32 79.8L66.49 79.11L67.18 77L67 76.71L67 76.1L67.1 75.69L67.1 75.38L67.4 74.74L67.2 74.35L68.69 71.74L69.19 71.52L69.43 71.35C70.21 70.62 71.26 69.65 72.03 68.92L72.85 68.45L74.31 67.12L75.25 65.92L75.69 65.09L76.95 63.18L77.43 61.79C77.43 61.59 77.5 61.39 77.53 61.18L77.35 61L77 61.4L75.81 61.68L75.15 61.76L74.8 61.96L74.18 62.04L73.45 62.38L73 62.27L72.81 61.81L72.6 61.61L72.16 61.44L72.28 61.23L72.71 61.07L72.81 60.79L71.7 59L71.14 58.67L70.89 58.38L70.63 58.05L70.36 57.23L70.27 56.59L69.62 55.59L69.3 55L69.3 53.95L69.1 52.76L68.81 52.34L68.22 51.55L68.22 50.9L67.1 48.6L66.74 47.75L66.52 47.24L65.74 46L65.85 45.32L66.25 45.96L66.64 46.84L67.12 47.45L67.38 47.45L67.54 46.3L67.69 47.3C68.89 48.77 68.89 48.77 69.16 49.81L69.57 50.71L70.21 51.03L70.33 51.6L70.66 52.09L70.86 53.85L71.52 54.43L72.02 55.57L72.56 56.57L72.56 57.09L72.88 57.73L72.61 58.47L72.95 59.31L72.95 60.46L73.87 60.46L74.53 59.99L74.97 60.04L75.46 59.74L75.89 59.39L76.31 59.49L76.99 58.84L78.5 58.3L78.68 57.69L79.2 57.4L80.2 57.05L80.5 57.05L80.5 56.7L80.8 56.36L81.32 56.36L81.49 55.96L81.74 55.62L82.1 55.35L82.1 54.95L82.33 54.26L82.63 54.05L82.79 53.79L83.04 53.28L83.35 52.46L83 52L82.79 51.42L82.08 51.08L81.69 50.41L81.48 49L80.54 50.58L79.92 50.89L79.41 50.89L79.05 51.16L78.78 50.87L78.7 50.34L78.78 49.54L78.62 49.27L78.19 50.1L77.86 49.19L77.86 49.01L77.67 48.49L77.07 47.72L76.79 46.96L76.45 45.96L77 45.3L77.19 45.43L77.61 45.43L78.52 47.43L79.07 47.68L79.4 48.01C80.21 48.59 80.21 48.59 80.62 48.71L81.3 48.22L81.83 48.36L82.04 49.46L84.13 49.98L84.39 49.87L85.27 50.06L85.39 49.78L85.68 49.87L85.89 49.98L86.22 49.93L86.43 49.86L86.65 49.7L86.79 50.05L87 50.51L87.08 51.08L87.27 51.27L87.52 51.48L87.89 52.19L88.07 52.19L88.32 52L88.32 52.28L88.16 52.54L87.73 52.67L88.11 53.67L88.51 54.1L88.87 53.71L88.99 53.25L88.99 53.01L89.15 52.82L89.15 53.48L89.24 53.92L89.1 54.43L88.97 57.43L88.97 59.43L89 61L89 62.6L88.86 63.08L88.86 64.28L89.02 64.23L89.29 63.81L89.77 63.1L89.9 62.65L90.14 62.41L90.42 61.41L90.67 60.8L90.83 60.21L90.91 59.61L91.11 58.78L91.33 58.12L91.65 57.52L92.43 56.23L92.81 55.29L93.1 54.73L93.35 53.99L93.41 53.33L93.59 53.09L93.84 53.09L93.97 52.94L94.13 52.62L94.13 52.2L94.21 52.2L94.21 54.18L94.29 54.69L94.23 55.87L94.17 57L94.02 57.69L94.02 58.03L94.11 57.83L94.27 57.27L94.36 56.83L94.28 57.73L94.13 58.66L94 59.73L93.91 60.31L93.7 61.16L93.51 61.91L92.84 64.08L92.78 64.33L92.46 65.42L92.12 66.36L91.75 67.36L91.39 68.26L91.33 68.4L90.97 69.17C91.07 68.96 91.16 68.75 91.24 68.53C91.33 68.32 91.41 68.1 91.48 67.88C91.56 67.66 91.63 67.44 91.69 67.22C91.76 67 91.82 66.77 91.87 66.55C91.87 66.43 91.87 66.32 91.87 66.2C91.82 66.32 91.77 66.44 91.73 66.56C91.68 66.68 91.64 66.81 91.6 66.93C91.56 67.05 91.52 67.18 91.49 67.3C91.45 67.43 91.42 67.55 91.39 67.68C91.25 68.08 91.11 68.48 90.95 68.88C90.8 69.28 90.63 69.67 90.45 70.06C90.28 70.45 90.09 70.83 89.9 71.21C89.7 71.59 89.49 71.96 89.28 72.33C87.32 75.73 84.93 78.87 82.16 81.65ZM50.31 5.78L50.31 5.76L50.3 5.78C50.29 5.78 50.29 5.78 50.28 5.78C50.29 5.76 50.3 5.74 50.32 5.73C50.36 5.69 50.41 5.67 50.46 5.67C50.51 5.67 50.56 5.69 50.6 5.73C50.62 5.74 50.63 5.76 50.64 5.78C50.6 5.78 50.35 5.78 50.31 5.78ZM7.45 62.08L7.58 62.58L7.45 62.19L7.45 62.08ZM7.77 63.19L7.77 63.39L7.68 63L7.58 62.58L7.77 63.19ZM7.19 61.92L7.26 62.11C7.21 62.04 7.19 61.98 7.19 61.92ZM16.08 23.93L16 23.97L15.89 23.97L15.94 23.93L16.08 23.93ZM15.6 24.23L15.46 24.35L15.3 24.42L15.14 24.58L15.26 24.38L15.42 24.21L15.51 24.21L15.73 23.97L15.89 23.97L15.6 24.23ZM20.17 17.01C20.07 17.1 19.98 17.19 19.88 17.28L20.26 16.92L20.17 17.01L20.17 17.01ZM28.88 10.89L28.57 11.04L28.95 10.84L28.88 10.89ZM33.48 8.55L33.41 8.58L33.61 8.5C33.57 8.52 33.52 8.54 33.48 8.55ZM33.39 8.59C33.38 8.59 33.36 8.6 33.35 8.61L32.8 8.83C32.79 8.84 32.78 8.84 32.77 8.85L33.23 8.66L33.39 8.59ZM38.01 6.98L38.12 6.71L38.2 6.71L38.39 6.65L39.09 6.65L39.36 6.58L39.59 6.51L39.39 6.51L39.75 6.41L40 6.41L40.28 6.39L39.92 6.47C39.28 6.62 38.64 6.79 38.01 6.98ZM38 7L37.44 7.16L37.19 7.22C37.46 7.14 37.74 7.06 38.01 6.98L38 7ZM37.19 7.22C37.06 7.26 36.94 7.3 36.81 7.34L37 7.27L37.19 7.22ZM63.87 7.17L63.91 7.17L63.74 7.11L63.8 7.11L63.89 7.14L63.87 7.14L64.07 7.2L63.96 7.2L63.87 7.17ZM64 7.14L64.13 7.19L64.05 7.19L63.89 7.14L64 7.14ZM48.32 5.89C47.93 5.95 48.06 5.92 48.15 5.9C48.18 5.9 48.22 5.89 48.25 5.89L48.32 5.89ZM76.18 37.52L76.34 36.78L76.22 35.9L74.58 33.74L74.39 33.1L73.83 32.2L74.28 31.34L75.01 30.83L75.42 30.35L76 30.35L76.88 30.56L77.26 31.61L76.8 31.8L76.21 32.12L76.21 32.53L76 32.76L76.51 33.21L76.83 33.77L77.3 34.08L77.65 34.45L78.04 35.36L78.21 34.72L78.79 35.4L79.14 35.85L78.63 36L78.13 36L78.37 36.68L78.5 37.16L79 37.6C79.11 38.19 79.21 38.79 79.31 39.39L77.86 39.83L77.57 39.32L76.95 38.91L76.39 38.68L76.09 38L76.18 37.52ZM80.75 33L80.24 31.65L80.37 32.7L80 32.37L80 31.44L80.12 31.12L80.52 31.12L81.05 31.63L81.34 32.49L81.16 32.98L80.75 33ZM65.6 41.05L66.04 41.31L66.7 41L66.7 40.55L67.05 40.34L66.05 40.68L65.6 41.05ZM59.12 40.72L59.77 40.93L60.24 41.02L61.24 40.7L59.77 40.7L59.42 40.51L59.12 40.72ZM50.91 38.52L52.26 39.23L52.64 39.51L52.85 39.38C52.85 39.2 52.85 39.02 52.85 38.84L53.17 38.26L52.54 38.26L52 38.3L51.54 38.21L51.26 38.21L50.91 38.52ZM47.91 34.62L48.14 35.13L48.34 35.21L48.55 34.88L48.61 34.34L48.53 33.83L48.04 34.22L47.92 34.42L47.91 34.62ZM47.5 35.79L47.77 36.54L47.77 37.28L47.88 37.53L48.1 37.53L48.23 37.42L48.65 37.2L48.72 36.93L48.72 35.96L48.65 35.7L48.37 35.59L48.01 35.68L47.83 35.77L47.5 35.79ZM43.08 37L43.41 37.13L43.71 37L43.71 36.63L43.25 36.73L43.08 37ZM56.35 20.48L56.6 20.22L56.89 20.08L56.5 20L56.39 20.07L56.35 20.48ZM54.17 21.42L54.36 21.27L54.51 21.04L54.51 20.65L54.26 20.81L54.17 21.42ZM50 22.57L50.09 22.84L50.32 23.02L50.13 23.18L50.3 23.46L50.49 23.41L50.76 23.06L50.93 22.28L50.71 22.43L50.49 22.28L50.19 22.35L50 22.57ZM67.18 9L67.44 9.16L67.54 9.16L67.32 9.05L67.18 9ZM64.77 11.63L64.55 11.47L64.23 11.37L64.03 11.43L64.12 11.62L64.34 11.78L64.62 11.89L64.74 11.78L64.77 11.63ZM65.44 8.76L65.62 8.89L65.89 9.02L65.89 8.9L65.44 8.76ZM60.92 7.25L60.61 7.25L60.69 7.35L60.74 7.42L60.68 7.42L60.81 7.54L60.93 7.66L61.05 7.74L60.9 7.74L61.3 7.92L61.41 8.05L61.53 8.12L61.69 8.24L61.78 8.34L61.78 8.41L61.88 8.49L62.19 8.61L62.19 8.67L62.3 8.75L62.3 8.89L62.44 9.01L62.35 9.07L62.77 9.28L62.9 9.47L62.8 9.6L62.88 9.7L63.22 9.89L63.4 9.89L63.79 10.16L63.95 10.16L63.64 10L63.93 10.12L64.16 10.24L64.23 10.31L64.69 10.54L65.19 10.62L65.57 10.62L64.64 10.18L63.83 9.72L63.51 9.5L63.45 9.36L63.11 9.12L63.11 9L62.76 8.7L62.76 8.63L62.45 8.45L62.52 8.45L62.33 8.32L62.13 8.22L62.13 8.04L61.92 7.89L61.74 7.6L61.69 7.45L61.42 7.23L61.07 7L60.68 7L60.68 7.08L60.84 7.18L60.9 7.18L60.92 7.25ZM53.88 5.6C53.86 5.6 53.84 5.6 53.82 5.61C53.79 5.61 53.77 5.61 53.75 5.61C53.73 5.61 53.71 5.61 53.68 5.61C53.66 5.6 53.64 5.6 53.62 5.6C53.64 5.6 53.65 5.6 53.67 5.6C53.69 5.59 53.7 5.59 53.72 5.59C53.74 5.59 53.75 5.59 53.77 5.6C53.79 5.6 53.8 5.6 53.82 5.6L53.88 5.6ZM54.46 5.78C54.43 5.78 54.41 5.78 54.38 5.77C54.36 5.77 54.33 5.77 54.31 5.76C54.28 5.76 54.26 5.75 54.23 5.75C54.21 5.74 54.18 5.74 54.16 5.73L54.04 5.67L53.95 5.67C53.93 5.67 53.91 5.66 53.89 5.66C53.87 5.66 53.84 5.65 53.82 5.65C53.8 5.64 53.78 5.64 53.76 5.63C53.74 5.62 53.72 5.62 53.7 5.61L54.11 5.68L54.38 5.68C54.39 5.68 54.4 5.68 54.4 5.68C54.41 5.68 54.42 5.68 54.43 5.68C54.44 5.68 54.45 5.68 54.46 5.68C54.46 5.68 54.47 5.68 54.48 5.68L54.46 5.78ZM54.85 5.68C54.83 5.68 54.82 5.69 54.8 5.69C54.78 5.69 54.76 5.69 54.75 5.69C54.73 5.69 54.71 5.69 54.69 5.69C54.67 5.69 54.66 5.68 54.64 5.68L54.85 5.68ZM55.42 5.68C55.37 5.68 55.29 5.68 55.23 5.62C55.2 5.61 55.17 5.61 55.13 5.6C55.1 5.59 55.07 5.59 55.04 5.58C55 5.58 54.97 5.57 54.94 5.57C54.91 5.57 54.87 5.56 54.84 5.56C54.85 5.56 54.87 5.56 54.88 5.55C54.9 5.55 54.91 5.55 54.93 5.55C54.94 5.55 54.95 5.55 54.97 5.55C54.98 5.56 55 5.56 55.01 5.56C55.05 5.57 55.09 5.58 55.13 5.59C55.17 5.6 55.21 5.61 55.25 5.62C55.29 5.62 55.33 5.63 55.37 5.63C55.41 5.64 55.45 5.64 55.49 5.64L55.42 5.68ZM55.13 5.39L55.58 5.44L55.13 5.44L55.13 5.39ZM54.53 5.39C54.56 5.4 54.59 5.4 54.63 5.41C54.66 5.42 54.69 5.42 54.72 5.43C54.76 5.43 54.79 5.44 54.82 5.44C54.85 5.44 54.89 5.45 54.92 5.45C54.95 5.45 54.92 5.45 54.68 5.45L54.67 5.45C54.58 5.44 54.47 5.42 54.4 5.41C54.45 5.42 54.53 5.43 54.61 5.45L54.36 5.45L54.35 5.42C54.34 5.43 54.32 5.44 54.31 5.45C54.28 5.47 54.26 5.48 54.24 5.5L54.3 5.39C54.26 5.38 54.21 5.37 54.17 5.37C54.12 5.36 54.08 5.36 54.04 5.35C53.99 5.35 53.95 5.34 53.9 5.34C53.86 5.33 53.81 5.33 53.77 5.33L54.28 5.33C54.3 5.33 54.32 5.33 54.34 5.33C54.36 5.33 54.38 5.33 54.4 5.33C54.42 5.33 54.44 5.33 54.46 5.33C54.48 5.33 54.5 5.33 54.52 5.33C54.49 5.34 54.47 5.35 54.45 5.36C54.43 5.37 54.41 5.38 54.4 5.39L54.53 5.39ZM54.4 5.41C54.39 5.41 54.38 5.41 54.37 5.4C54.37 5.4 54.37 5.4 54.37 5.41C54.37 5.41 54.37 5.41 54.37 5.41C54.38 5.41 54.39 5.41 54.4 5.41ZM54.85 5.47L55.09 5.53C55.04 5.53 54.81 5.49 54.61 5.45L54.67 5.45C54.75 5.46 54.82 5.47 54.85 5.47ZM53.95 5.27C53.93 5.27 53.9 5.27 53.88 5.28C53.85 5.28 53.83 5.28 53.8 5.28C53.77 5.28 53.75 5.28 53.72 5.28C53.7 5.27 53.67 5.27 53.65 5.27L53.95 5.27ZM51.12 5.44L51.61 5.44L51.5 5.37L51.6 5.43L52.18 5.43L52.18 5.53L51.16 5.53L51.12 5.44ZM51 5.78L50.92 5.78L50.92 5.72L51 5.78ZM50.99 5.83C51.01 5.85 51.03 5.87 51.04 5.89C51.06 5.91 51.08 5.94 51.1 5.96C51.11 5.98 51.13 6.01 51.14 6.03L51 5.94L50.92 5.87L50.86 5.79L50.86 5.87L50.67 5.87C50.66 5.84 50.65 5.81 50.64 5.78L50.92 5.78C50.94 5.8 50.96 5.81 50.99 5.83ZM51.87 6.21L51.9 6.26L52 6.37L52.13 6.37L52.13 6.56L52.37 6.56L52.32 6.49L52.16 6.49L52.16 6.34L52.1 6.27L51.95 6.27L51.87 6.21ZM50.25 5.98L50.25 6.09L50.36 6.16L50.44 6.21L50.32 6.06L50.25 5.98ZM42.72 18.85L42.9 18.71L43.06 18.43L43.06 18.26L42.78 18.59L42.72 18.85ZM38.89 22.46L39.34 22.31L39.34 22.65L39.47 22.65L39.67 22.54L39.82 22.28L39.92 22.17L39.92 22.67L39.65 23.07L39.56 23.22L39.92 23.31L40.2 23.26L40.54 23.07L40.66 23.07L40.57 23.32L40.46 23.59L40.67 23.74L40.76 23.85L40.63 24.13L40.55 24.52L40.03 24.61L39.91 24.55L39.76 24.55L39.67 24.77L39.55 24.91L39.43 25.08L39.63 25.21L39.75 25.33L39.66 25.47L39.06 25.77L38.9 25.9L39.16 26.08L39.36 26.01L39.46 26.09L39.79 26.2L40.13 26.26L40.48 26.2L40.3 26.4L40.06 26.5L39.57 26.5L39.17 26.8L38.84 27.1L38.56 27.55L39.09 27.27L39.35 27.19L39.55 27.37L39.89 27.07L39.89 26.98L40.3 26.89L40.74 26.94L40.95 26.74L41.39 26.98L41.77 26.8L42.43 26.8L42.91 26.6L43.16 26.35L42.86 26.35L42.75 26.23L42.95 25.96L43.42 25.6L43.57 25.33L43.36 25L43 25L42.91 25.09L42.79 25.09L42.68 24.96L42.68 24.61L42.43 24.13C42.43 24.04 42.43 23.95 42.43 23.87L42.24 23.55L42.04 23.45L41.88 23.18L41.88 22.74L41.79 22.58L41.54 22.43L41.37 22.31L41.01 22.31L41 22.2L41.48 21.83L41.8 21.36L42.04 20.87L41.88 20.78L40.73 20.78L40.83 20.61L41.13 20.43L41.38 20.13L41.52 19.94L41.52 19.79L41.21 20.02L40.44 20.02L40.13 20.48L39.8 20.79L39.8 21.03L39.66 21.03L39.53 20.87L39.35 20.87L39.29 20.97L39.45 21.15L39.67 21.23L39.67 21.3L39.31 21.67L39.31 21.79L39.43 21.87L39.55 21.99L39.14 22.23L38.89 22.46ZM39.1 20.7L39.31 20.61L39.56 20.37L39.62 20.18L39.24 20.44L39.1 20.7ZM38.19 23.1L37.91 23L37.63 23L37.49 23.15L37.7 23.45L37.63 23.55L37.15 23.71L37.05 23.81L36.88 23.81L36.52 23.73L36.46 24.21L36.36 24.36L36.67 24.75L36.67 24.9L36.39 25.11L36.22 25.41L35.84 25.63L35.84 25.75L36.13 26.09L36.7 26.09L37.3 25.78L37.75 25.56L38.32 25.56L38.55 25.18L38.66 24.4L38.66 24L38.95 23.83L39.2 23.69L39.29 23.54L38.89 22.92L38.19 23.1ZM34.52 15.28L34.4 15.45L33.91 15.67L33.99 15.73L34.44 15.65L34.7 15.73L35.08 16.05L35.51 15.98L35.83 15.81L36.22 15.68L36.49 15.6L36.9 15.41L37.41 15.28L37.74 15.03L38.27 14.67L38.27 14.28L38.14 14.2L38.29 13.77L38 13.77L37.76 13.56L37.43 13.98L37.28 13.86L37.1 14L37.1 13.84L36.85 13.84L36.7 13.76L36.29 13.98L36.21 13.88L35.79 14.32L35.44 14.46L35.44 14.29L35.63 14.08L35.63 13.77L35.41 13.62L35.35 13.62L35.26 13.92L35.14 13.92L34.81 14.04L34.38 14.35L34.38 14.47L34.65 14.47L34.98 14.4L35.12 14.47L34.87 14.7L34.75 14.85L34.02 14.99L34.57 14.99L34.57 15.17L34.52 15.28ZM29.96 11.4L30 11.38L29.99 11.39L29.96 11.4ZM6.5 55.64L6.5 55.4L6.29 55L6.14 54.77L6.06 54.77L6 54.49L6 54.86L6.13 55.61L6.07 55.71L6.07 55.9L6.16 56.25L6.16 56.14L6.24 56.35L6.31 56L6.38 55.94L6.47 56.02L6.5 55.64ZM7 56L6.94 55.79L6.77 55.67L6.77 56L6.84 56.21L7 56.21L7 56ZM9.21 62.6L9.08 62.16L9 62.32L9.1 62.68L9.21 62.6ZM12.46 28.74C12.69 28.37 12.69 28.37 12.69 28.35C12.7 28.3 12.7 28.24 12.69 28.19C12.69 28.14 12.68 28.09 12.67 28.03C12.66 27.98 12.65 27.93 12.63 27.88C12.61 27.83 12.59 27.79 12.56 27.74L12.46 28.74ZM15.2 26.26L14.48 26.9L14.01 27.51L13.67 28.07L13.47 28.46L13.4 28.41L13.25 28.46L13.06 28.82L13 29L12.73 29.36L12.61 29.66L13.19 29.66L13.48 29.44L13.48 29.54L13.54 29.66L13.24 30.16L13.46 30.03L13.59 29.91L13.74 29.91L13.63 30.27L13.76 30.37L13.99 30.19C13.99 30.1 14.07 30 14.12 29.9L14.12 29.57L14 29.69L14.14 29.39L14.28 29.2L14.4 29.03L14.24 29.03L14.37 28.77L14.64 28.38L14.64 28.16L14.45 28.24L14.3 28.38L14.3 27.88L14.37 27.72L14.37 27.59L14.15 27.74L14.08 27.74L14.44 27.28L14.68 26.95L14.86 26.72L15.03 26.53L15.2 26.26ZM71.33 78.39L71.33 78.1L71.07 78.28L70.79 78.71L70.38 78.97L70.14 78.97L70.01 79.24L69.7 79.85L69.31 79.91L68.45 80.32L67.78 80.45L67.56 80.66L67.21 81.2L66.99 81.5L66.75 82.19L66.5 82.83L66.04 83.28L65.46 83.86L64.82 85.42L65.08 85.68L65.37 85.63L65.91 85.45C67.07 84.21 68.58 82.53 69.69 81.25L70.13 80.62L70.39 80.14L70.5 80.41L70.75 80.2L70.89 79.89L71.11 79.22L71.24 78.88L71.33 78.39ZM89.21 65.88L89.99 64.88L90.08 63.11L89.44 64.83L89.21 65.88Z" />
</svg>