<svg xmlns="http://www.w3.org/2000/svg" width="46.92" height="66.002" viewBox="0 0 46.92 66.002">
  <g id="noun_exam_2455354" transform="translate(-10.54 -0.999)">
    <g id="Group_1" data-name="Group 1">
      <path id="Path_1" data-name="Path 1" d="M13.66,67H54.35a3.114,3.114,0,0,0,3.11-3.11v-50.7a3.114,3.114,0,0,0-3.11-3.11H46.219a4.162,4.162,0,0,0-4.139-3.86H39.227a5.224,5.224,0,0,0-10.448,0H25.93a4.162,4.162,0,0,0-4.139,3.86H13.66a3.118,3.118,0,0,0-3.12,3.11v50.7A3.119,3.119,0,0,0,13.66,67ZM34,3a3.233,3.233,0,0,1,3.229,3.22H30.778A3.228,3.228,0,0,1,34,3ZM23.76,10.391a2.173,2.173,0,0,1,2.17-2.17H42.08a2.173,2.173,0,0,1,2.17,2.17v3.53H23.76ZM50.5,15.921v34.2h-7.92a2,2,0,0,0-2,2v7.92H17.5V15.921Zm-1.414,36.2-6.506,6.506V52.121ZM12.54,13.191a1.117,1.117,0,0,1,1.12-1.11h8.1v1.84H17.5a2,2,0,0,0-2,2v44.12a2,2,0,0,0,2,2h24.08a1,1,0,0,0,.707-.293l9.92-9.92a1.12,1.12,0,0,0,.293-.707v-35.2a2,2,0,0,0-2-2H46.25v-1.84h8.1a1.1,1.1,0,0,1,1.11,1.11v50.7A1.112,1.112,0,0,1,54.35,65H13.66a1.117,1.117,0,0,1-1.12-1.11Z" fill="#084fa9"/>
      <path id="Path_2" data-name="Path 2" d="M21.883,24.647h2a1,1,0,0,0,0-2h-2a1,1,0,0,0,0,2Z" fill="#084fa9"/>
      <path id="Path_3" data-name="Path 3" d="M21.883,31.814h2a1,1,0,0,0,0-2h-2a1,1,0,0,0,0,2Z" fill="#084fa9"/>
      <path id="Path_4" data-name="Path 4" d="M21.883,38.981h2a1,1,0,0,0,0-2h-2a1,1,0,0,0,0,2Z" fill="#084fa9"/>
      <path id="Path_5" data-name="Path 5" d="M21.883,46.148h2a1,1,0,0,0,0-2h-2a1,1,0,0,0,0,2Z" fill="#084fa9"/>
      <path id="Path_6" data-name="Path 6" d="M21.883,53.315h2a1,1,0,0,0,0-2h-2a1,1,0,0,0,0,2Z" fill="#084fa9"/>
      <path id="Path_7" data-name="Path 7" d="M29.356,24.647H46.119a1,1,0,0,0,0-2H29.356a1,1,0,0,0,0,2Z" fill="#084fa9"/>
      <path id="Path_8" data-name="Path 8" d="M29.356,31.814H46.119a1,1,0,0,0,0-2H29.356a1,1,0,0,0,0,2Z" fill="#084fa9"/>
      <path id="Path_9" data-name="Path 9" d="M29.356,38.981H46.119a1,1,0,0,0,0-2H29.356a1,1,0,0,0,0,2Z" fill="#084fa9"/>
      <path id="Path_10" data-name="Path 10" d="M29.356,46.148H46.119a1,1,0,0,0,0-2H29.356a1,1,0,0,0,0,2Z" fill="#084fa9"/>
      <path id="Path_11" data-name="Path 11" d="M29.356,53.315H35.4a1,1,0,0,0,0-2H29.356a1,1,0,0,0,0,2Z" fill="#084fa9"/>
      <path id="Path_12" data-name="Path 12" d="M30.28,10.543h-3a1,1,0,0,0,0,2h3a1,1,0,0,0,0-2Z" fill="#084fa9"/>
      <path id="Path_13" data-name="Path 13" d="M37.53,10.543h-3.5a1,1,0,0,0,0,2h3.5a1,1,0,0,0,0-2Z" fill="#084fa9"/>
    </g>
  </g>
</svg>
