<svg xmlns="http://www.w3.org/2000/svg" width="88" height="88" viewBox="0 0 88 88">
  <g id="noun_Close_997408" transform="translate(-6 -6)">
    <g id="Group_1" data-name="Group 1" transform="translate(0 -952.362)">
      <path id="Path_1" fill="#004FAA" data-name="Path 1" d="M50,958.362a44,44,0,1,0,44,44A44.031,44.031,0,0,0,50,958.362Zm0,4a40,40,0,1,1-40,40A39.964,39.964,0,0,1,50,962.362Z" fill-rule="evenodd"/>
      <path id="Path_2" fill="#004FAA" data-name="Path 2" d="M34.765,985.352a2,2,0,0,0-1.188,3.438l13.563,13.594-13.562,13.562a2.011,2.011,0,0,0,2.844,2.844L50.015,1005.2l13.563,13.594a2.011,2.011,0,1,0,2.844-2.844l-13.594-13.562L66.421,988.79a2.011,2.011,0,1,0-2.844-2.844L50.015,999.509,36.421,985.946a2.3,2.3,0,0,0-1.656-.594Z" transform="translate(723.422 258.234) rotate(45)" fill-rule="evenodd"/>
    </g>
  </g>
</svg>
