<svg xmlns="http://www.w3.org/2000/svg" width="70" height="56.004" viewBox="0 0 70 56.004">
  <g id="noun_Teacher_1084044" transform="translate(-15 -21.996)">
    <g id="Group_1" data-name="Group 1" transform="translate(0 -952.362)">
      <path id="Path_1" data-name="Path 1" d="M33.813,22A1,1,0,0,0,33,23V38.313c-.922.286-1.689.511-2.656.813-2.383.744-4.782,1.5-6.594,2.063-.906.281-1.674.521-2.219.688-.273.083-.472.142-.625.188-.076.023-.149.051-.187.063A6.985,6.985,0,0,0,15,49V77a1,1,0,0,0,1,1H28a1,1,0,0,0,1-1V51.594l4-2.344V53a1,1,0,0,0,1,1H84a1,1,0,0,0,1-1V23a1,1,0,0,0-1-1H34a1,1,0,0,0-.187,0ZM35,24H83V52H35V48.094c.45-.263.466-.288.938-.562,1.859-1.083,3.724-2.151,5.125-2.969.7-.409,1.274-.758,1.688-1,.207-.121.355-.214.469-.281l.156-.094c.017-.01.017-.023.031-.031s.02.007.031,0,.093-.093.094-.094A3.768,3.768,0,0,0,44.844,39l10.594-5.094a1.007,1.007,0,1,0-.875-1.813L43.875,37.25a3.9,3.9,0,0,0-3.844-1.125c-.11.027-.08.018-.125.031s-.112.039-.187.063c-.152.047-.356.1-.625.188-.537.167-1.32.407-2.219.688-.517.161-1.279.409-1.875.594ZM22,28a6,6,0,1,0,6,6A6.015,6.015,0,0,0,22,28Zm0,2a4,4,0,1,1-4,4A3.985,3.985,0,0,1,22,30Zm19,8a1.976,1.976,0,0,1,1.281,3.5c-.011.009-.02.022-.031.031s-.016.022-.031.031c-.111.065-.263.161-.469.281-.411.241-1.019.56-1.719.969-1.4.817-3.267,1.917-5.125,3C31.19,47.979,27.5,50.125,27.5,50.125A1,1,0,0,0,27,51V76H17V49a4.971,4.971,0,0,1,4.094-4.906c.148-.027.1-.048.156-.062l.219-.062c.161-.048.381-.1.656-.187.55-.168,1.312-.406,2.219-.687,1.814-.562,4.211-1.319,6.594-2.062S35.7,39.561,37.5,39c.9-.281,1.652-.521,2.188-.687.268-.083.476-.142.625-.187.074-.023.117-.05.156-.062s.126-.023.031,0A2.069,2.069,0,0,1,41,38Z" transform="translate(0 952.362)" fill="#545454"/>
    </g>
  </g>
</svg>
