<svg xmlns="http://www.w3.org/2000/svg" width="61.603" height="82.158" viewBox="0 0 61.603 82.158">
  <g id="noun_student_3107354" transform="translate(-19.219 -9)">
    <path id="Path_1" data-name="Path 1" d="M80.81,82.7a1.06,1.06,0,0,0,0-.31L73.26,58.72a7.34,7.34,0,0,0-4.64-4.93,56.54,56.54,0,0,0-18.55-3.13h-.14a56.508,56.508,0,0,0-18.555,3.132,7.32,7.32,0,0,0-4.625,4.9l-7.52,23.7a1.06,1.06,0,0,0,0,.31c0,2.86,3.4,5.07,10.1,6.56A100.12,100.12,0,0,0,50,91.15a128.08,128.08,0,0,0,14.84-.91h.07a1.12,1.12,0,0,0,.31,0C73,89.17,80.81,87.06,80.81,82.7ZM49,89.14a113.137,113.137,0,0,1-13.06-.79l-2.62-13.3a1.019,1.019,0,0,0-2,.39l2.49,12.63C26.31,87,21.39,85,21.19,82.83l7.47-23.56A5.33,5.33,0,0,1,32,55.68a54.65,54.65,0,0,1,17-3Zm17.16-1.07,2.49-12.63a1.019,1.019,0,0,0-2-.39l-2.62,13.3A113.14,113.14,0,0,1,51,89.14V52.67a54.65,54.65,0,0,1,17,3,5.35,5.35,0,0,1,3.39,3.62l7.46,23.53C78.61,85,73.69,87,66.16,88.07Z" fill="#004faa"/>
    <path id="Path_2" data-name="Path 2" d="M50,48.29A17.79,17.79,0,0,0,67.77,30.52v-9.2l9.94-1.89a1,1,0,0,0,.44-1.76L67.77,9.22A1,1,0,0,0,67.14,9H32.86a1,1,0,0,0-.63.22L21.85,17.67a1,1,0,0,0,.44,1.76l4.86.92V32.71a4.3,4.3,0,1,0,2,0v-12l3.08.59v9.2A17.79,17.79,0,0,0,50,48.29Zm0-2A15.78,15.78,0,0,1,34.28,31.52H65.72A15.78,15.78,0,0,1,50,46.29ZM65.77,22.37v7.15H34.23V21.7l.33.06,1,.2,1.06.2,13.15,2.49h.38L63.3,22.16,64.4,22l1-.2.33-.06ZM30.45,36.89a2.31,2.31,0,1,1-3.3-2.07,2.37,2.37,0,0,1,1-.23,2.4,2.4,0,0,1,1,.23,2.31,2.31,0,0,1,1.3,2.07ZM28.17,18.51l-3.39-.64L33.22,11H66.78l8.44,6.87-7.45,1.41-1,.19-1,.19L64.25,20l-1.09.2L62,20.37,50,22.65,38,20.37l-1.12-.22L35.75,20l-1.52-.29h0l2-.32L37.81,19l1.73-.27L50.15,17.1a1.011,1.011,0,1,0-.3-2l-6.18,1-2.93.46-2.1.32-4.41.69-1,.16-1,.16Z" fill="#004faa"/>
  </g>
</svg>
