<svg xmlns="http://www.w3.org/2000/svg" width="66.455" height="80" viewBox="0 0 66.455 80">
  <g id="Group_1" data-name="Group 1" transform="translate(-14.773 -8)">
    <path id="Path_1" data-name="Path 1" d="M23.79,45.612a18.4,18.4,0,0,0-3.564.313l-1.06.211-.012,11.513,1.041.225c1.594.346,2.794,1.034,2.793,1.6L22.97,70.934c0,.266-.232,1.268-3.186,3.009l-.648.382-.01,10.007,1.659-.438c.1-.027.216-.058.381-.1a26.947,26.947,0,0,1,6.648-.669c5.237,0,12.978.966,17.561,3.687l1.991,1.172.011-33.9-.293-.363C43.455,49.231,31.373,45.612,23.79,45.612ZM44.729,83.523c-4.994-2.217-11.8-3.035-16.916-3.035a34.515,34.515,0,0,0-6.046.468l0-5.136c1.8-1.134,3.83-2.777,3.835-4.881l.019-11.46c0-1.753-1.379-3.146-3.833-3.911l.007-7.217a18.308,18.308,0,0,1,1.988-.1c7.283,0,17.748,3.436,20.949,6.8Z"/>
    <path id="Path_2" data-name="Path 2" d="M79.272,59.034l-.8-.354-.822.112c-.147.021-3.584.523-3.576,2.489l.012,8.7c0,1.321,1.942,2.542,2.889,3.058l1.864.482a2.549,2.549,0,0,0,2.392-2.616V62A3.319,3.319,0,0,0,79.272,59.034ZM78.583,70.9h-.018l-.127-.064a7.6,7.6,0,0,1-1.718-1.182l-.011-7.86a4.505,4.505,0,0,1,1.3-.386l.084-.011.1.046a.67.67,0,0,1,.4.556Z"/>
    <path id="Path_3" data-name="Path 3" d="M21.917,69.986l.014-8.7c0-1.965-3.428-2.471-3.581-2.492l-.82-.111-.808.355A3.315,3.315,0,0,0,14.773,62v8.911a2.541,2.541,0,0,0,2.381,2.613l.458.033.1-1.315-.09,1.315.362.024.78-.4C19.5,72.806,21.914,71.461,21.917,69.986Zm-2.638-.334a7.622,7.622,0,0,1-1.71,1.178l-.129.066-.028,0V62a.7.7,0,0,1,.388-.553l.111-.049.079.01a4.561,4.561,0,0,1,1.3.388Z"/>
    <path id="Path_4" data-name="Path 4" d="M76.217,73.944c-2.955-1.743-3.188-2.744-3.188-3.009L73.01,59.477c0-.576,1.177-1.25,2.8-1.6l1.039-.228-.011-11.512-1.063-.209a18.471,18.471,0,0,0-3.536-.307c-7.6,0-19.694,3.618-23.32,8.111l-.293.363L48.637,88l1.993-1.187c4.558-2.715,12.3-3.679,17.552-3.679a26.378,26.378,0,0,1,6.987.745l1.707.493-.011-10.047ZM68.182,80.5c-5.126,0-11.931.816-16.909,3.026l-.01-28.471c3.2-3.363,13.677-6.8,20.975-6.8a18.4,18.4,0,0,1,1.963.1l.008,7.214c-2.455.768-3.838,2.161-3.837,3.911l.02,11.462c0,2.1,2.035,3.745,3.838,4.881l.006,5.133A35.473,35.473,0,0,0,68.182,80.5Z"/>
    <path id="Path_5" data-name="Path 5" d="M31.293,21.713H64.708v3.143l1.654-1.763v4.113c-.6.473-.126,1.4-.126,2.472,0,1.554-.034.175,1.007.175s1.008,1.379,1.008-.175c0-1.076.469-2-.127-2.472V22.151L73.157,17.7,48,8,22.844,17.7l8.449,7.151Z"/>
    <path id="Path_6" data-name="Path 6" d="M62.854,34.237a16.332,16.332,0,0,0-.181-2.3l.765-9.03H32.563l.765,9.029a16.064,16.064,0,0,0-.181,2.3,15.085,15.085,0,0,0,4.335,10.792A14.7,14.7,0,0,0,48,49.32h.046a14.679,14.679,0,0,0,10.477-4.292A15.081,15.081,0,0,0,62.854,34.237ZM48.042,46.682h-.085a12.059,12.059,0,0,1-8.608-3.515,12.467,12.467,0,0,1-3.564-8.923,13.854,13.854,0,0,1,.174-2.062l.023-.155.33-3.84H59.687l.33,3.839.023.154a14.02,14.02,0,0,1,.175,2.063,12.464,12.464,0,0,1-3.563,8.922A12.054,12.054,0,0,1,48.042,46.682Z"/>
  </g>
</svg>
