<svg xmlns="http://www.w3.org/2000/svg" width="61.702" height="80" viewBox="0 0 61.702 80">
  <g id="noun_exam_1675150" transform="translate(-19.243 -10)">
    <path id="Path_1" data-name="Path 1" d="M69.808,22.787H45.074a1,1,0,0,0,0,2H69.808a1,1,0,0,0,0-2Z" fill="#004faa"/>
    <path id="Path_2" data-name="Path 2" d="M69.808,30.63H45.074a1,1,0,1,0,0,2H69.808a1,1,0,1,0,0-2Z" fill="#004faa"/>
    <path id="Path_3" data-name="Path 3" d="M79.945,90a1,1,0,0,0,1-1V11a1,1,0,0,0-1-1h-59.7a1,1,0,0,0-1,1V89a1,1,0,0,0,1,1Zm-58.7-78h57.7V88h-57.7Z" fill="#004faa"/>
    <path id="Path_4" data-name="Path 4" d="M38.223,22.787H30.38a1,1,0,0,0-1,1V31.63a1,1,0,0,0,1,1h7.843a1,1,0,0,0,1-1V23.787A1,1,0,0,0,38.223,22.787Zm-1,7.843H31.38V24.787h5.843Z" fill="#004faa"/>
    <path id="Path_5" data-name="Path 5" d="M69.808,37.647H45.074a1,1,0,0,0,0,2H69.808a1,1,0,0,0,0-2Z" fill="#004faa"/>
    <path id="Path_6" data-name="Path 6" d="M69.808,45.491H45.074a1,1,0,0,0,0,2H69.808a1,1,0,0,0,0-2Z" fill="#004faa"/>
    <path id="Path_7" data-name="Path 7" d="M38.223,37.647H30.38a1,1,0,0,0-1,1v7.844a1,1,0,0,0,1,1h7.843a1,1,0,0,0,1-1V38.647A1,1,0,0,0,38.223,37.647Zm-1,7.844H31.38V39.647h5.843Z" fill="#004faa"/>
    <path id="Path_8" data-name="Path 8" d="M69.808,52.509H45.074a1,1,0,0,0,0,2H69.808a1,1,0,0,0,0-2Z" fill="#004faa"/>
    <path id="Path_9" data-name="Path 9" d="M69.808,60.353H45.074a1,1,0,0,0,0,2H69.808a1,1,0,0,0,0-2Z" fill="#004faa"/>
    <path id="Path_10" data-name="Path 10" d="M38.223,52.509H30.38a1,1,0,0,0-1,1v7.844a1,1,0,0,0,1,1h7.843a1,1,0,0,0,1-1V53.509A1,1,0,0,0,38.223,52.509Zm-1,7.844H31.38V54.509h5.843Z" fill="#004faa"/>
    <path id="Path_11" data-name="Path 11" d="M69.808,67.37H45.074a1,1,0,0,0,0,2H69.808a1,1,0,0,0,0-2Z" fill="#004faa"/>
    <path id="Path_12" data-name="Path 12" d="M69.808,75.213H45.074a1,1,0,0,0,0,2H69.808a1,1,0,0,0,0-2Z" fill="#004faa"/>
    <path id="Path_13" data-name="Path 13" d="M38.223,67.37H30.38a1,1,0,0,0-1,1v7.843a1,1,0,0,0,1,1h7.843a1,1,0,0,0,1-1V68.37A1,1,0,0,0,38.223,67.37Zm-1,7.843H31.38V69.37h5.843Z" fill="#004faa"/>
  </g>
</svg>
