<svg id="noun_Check_Mark_69396" data-name="noun_Check Mark_69396" xmlns="http://www.w3.org/2000/svg" width="96" height="96" viewBox="0 0 96 96">
  <path id="Path_1" data-name="Path 1" d="M48,4A44,44,0,1,1,4,48,44.055,44.055,0,0,1,48,4Zm0-4A48,48,0,1,0,96,48,48,48,0,0,0,48,0Z" fill="#004faa"/>
  <path id="Path_2" data-name="Path 2" d="M44.084,66.168a2.011,2.011,0,0,1-1.416-.584L26.5,49.416a2,2,0,0,1,2.828-2.828L43.768,61.024,66.416,26.9a2,2,0,0,1,3.336,2.212l-24,36.168a2,2,0,0,1-1.468.888c-.064,0-.132,0-.2,0Z" fill="#004faa"/>
</svg>
