<svg xmlns="http://www.w3.org/2000/svg" width="77.596" height="90" viewBox="0 0 77.596 90">
  <g id="noun_Lock_411504" transform="translate(-11.202 -5)">
    <g id="Group_1" data-name="Group 1">
      <path id="Path_1" data-name="Path 1" d="M81.358,42.882V36.359a31.358,31.358,0,1,0-62.716,0v6.523A11.246,11.246,0,0,0,11.2,53.444V83.76A11.25,11.25,0,0,0,22.438,95H77.561A11.251,11.251,0,0,0,88.8,83.762V53.445A11.244,11.244,0,0,0,81.358,42.882ZM21.826,36.358a28.174,28.174,0,1,1,56.348,0v5.88c-.2-.012-.406-.031-.612-.031H69.946V36.359a19.946,19.946,0,1,0-39.893,0v5.849H22.44c-.207,0-.408.02-.612.031V36.358Zm44.936,0v5.849H33.236V36.358a16.763,16.763,0,1,1,33.526,0Zm18.853,47.4a8.064,8.064,0,0,1-8.054,8.055H22.438a8.064,8.064,0,0,1-8.054-8.055V53.445a8.065,8.065,0,0,1,8.054-8.055H77.561a8.065,8.065,0,0,1,8.054,8.055V83.762Z" fill="#084fa9"/>
      <path id="Path_2" data-name="Path 2" d="M50,53.12a9.032,9.032,0,0,0-5.064,16.512V80.51a3.58,3.58,0,0,0,3.576,3.575h2.977a3.58,3.58,0,0,0,3.576-3.575V69.632A9.032,9.032,0,0,0,50,53.12Zm2.729,14.2a1.594,1.594,0,0,0-.848,1.408V80.51a.392.392,0,0,1-.393.392H48.511a.394.394,0,0,1-.4-.392V68.733a1.588,1.588,0,0,0-.846-1.406,5.852,5.852,0,1,1,5.459,0Z" fill="#084fa9"/>
    </g>
  </g>
</svg>
