<svg xmlns="http://www.w3.org/2000/svg" width="48" height="44.2" viewBox="0 0 48 44.2">
  <g id="noun_checkered_flag_2334378" data-name="noun_checkered flag_2334378" transform="translate(81 51.9) rotate(180)">
    <g id="Group_2" data-name="Group 2">
      <path id="Path_4" data-name="Path 4" d="M49,10.6c-2.7.5-5.3.9-8,1.3v8a74,74,0,0,0,8-1.3Z"/>
      <path id="Path_5" data-name="Path 5" d="M65,7.7A74,74,0,0,0,57,9v8c2.7-.5,5.3-.9,8-1.3Z"/>
      <path id="Path_6" data-name="Path 6" d="M81,9.8a27.81,27.81,0,0,0-8-2.1v8a27.81,27.81,0,0,1,8,2.1Z"/>
      <path id="Path_7" data-name="Path 7" d="M41,27.9v-8a53.408,53.408,0,0,1-8,0v8A53.408,53.408,0,0,0,41,27.9Z"/>
      <path id="Path_8" data-name="Path 8" d="M57,25V17c-2.7.6-5.3,1.1-8,1.7v8C51.7,26.1,54.3,25.5,57,25Z"/>
      <path id="Path_9" data-name="Path 9" d="M65,15.7v8a53.408,53.408,0,0,1,8,0v-8A53.408,53.408,0,0,0,65,15.7Z"/>
      <path id="Path_10" data-name="Path 10" d="M41,27.9v8a74,74,0,0,0,8-1.3v-8A74,74,0,0,1,41,27.9Z"/>
      <path id="Path_11" data-name="Path 11" d="M57,33c2.7-.5,5.3-.9,8-1.3v-8A74,74,0,0,0,57,25Z"/>
      <path id="Path_12" data-name="Path 12" d="M81,33.8v-8a27.81,27.81,0,0,0-8-2.1v8A27.81,27.81,0,0,1,81,33.8Z"/>
      <path id="Path_13" data-name="Path 13" d="M33,35.9v8a53.408,53.408,0,0,0,8,0v-8A53.409,53.409,0,0,1,33,35.9Z"/>
      <path id="Path_14" data-name="Path 14" d="M49,34.6v8c2.7-.6,5.3-1.1,8-1.7v-8C54.3,33.5,51.7,34.1,49,34.6Z"/>
      <path id="Path_15" data-name="Path 15" d="M65,31.7v8a53.408,53.408,0,0,1,8,0v-8A53.408,53.408,0,0,0,65,31.7Z"/>
      <path id="Path_16" data-name="Path 16" d="M41,51.9a74,74,0,0,0,8-1.3v-8c-2.7.5-5.3.9-8,1.3Z"/>
      <path id="Path_17" data-name="Path 17" d="M57,49c2.7-.5,5.3-.9,8-1.3v-8A74,74,0,0,0,57,41Z"/>
      <path id="Path_18" data-name="Path 18" d="M81,49.8v-8a27.81,27.81,0,0,0-8-2.1v8A27.81,27.81,0,0,1,81,49.8Z"/>
    </g>
  </g>
</svg>
