<svg xmlns="http://www.w3.org/2000/svg" viewBox="0 0 72 72" width="72" height="72">
	<style>
		tspan { white-space:pre }
		.shp0 { fill: #545454 } 
	</style>
	<g id="Layer">
		<path id="Layer" class="shp0" d="M36.5 8C25.5 8 15.3 14.4 10.5 24.2L10.5 12C10.5 11.4 10.1 11 9.5 11C8.9 11 8.5 11.4 8.5 12L8.5 27C8.5 27.6 8.9 28 9.5 28L24.5 28C25.1 28 25.5 27.6 25.5 27C25.5 26.4 25.1 26 24.5 26L11.9 26C16.2 16.4 25.9 10 36.5 10C51.4 10 63.5 22.1 63.5 37C63.5 51.9 51.4 64 36.5 64C28.8 64 21.4 60.7 16.3 54.9C15.9 54.5 15.3 54.4 14.9 54.8C14.5 55.2 14.4 55.8 14.8 56.2C20.3 62.4 28.2 66 36.5 66C52.5 66 65.5 53 65.5 37C65.5 21 52.5 8 36.5 8Z" stroke="#545454" stroke-width="2"/>
		<path id="Layer" class="shp0" d="M27.2 48.7L37.2 38.7C37.4 38.5 37.5 38.3 37.5 38L37.5 19C37.5 18.4 37.1 18 36.5 18C35.9 18 35.5 18.4 35.5 19L35.5 37.6L25.8 47.3C25.4 47.7 25.4 48.3 25.8 48.7C26 48.9 26.3 49 26.5 49C26.7 49 27 48.9 27.2 48.7Z" stroke="#545454" stroke-width="2"/>
	</g>
</svg>