<?xml version="1.0" encoding="UTF-8"?>
<svg width="12px" height="12px" viewBox="0 0 12 12" version="1.1" xmlns="http://www.w3.org/2000/svg" xmlns:xlink="http://www.w3.org/1999/xlink">
    <!-- Generator: Sketch 55.2 (78181) - https://sketchapp.com -->
    <title>Fill 1</title>
    <desc>Created with Sketch.</desc>
    <g id="Manage-Institute-Flow" stroke="none" stroke-width="1" fill="none" fill-rule="evenodd">
        <g id="02_List-of-Institute" transform="translate(-71.000000, -255.000000)" fill="#3F4141">
            <g id="Table-content" transform="translate(27.000000, 254.000000)">
                <path d="M49.233531,1.9229791 C51.6105587,1.9229791 53.544358,3.85668866 53.544358,6.23360623 C53.544358,8.60988793 51.6108767,10.5435975 49.233531,10.5435975 C46.8565032,10.5435975 44.9227039,8.60988793 44.9227039,6.23360623 C44.9230219,3.85668866 46.8568211,1.9229791 49.233531,1.9229791 M49.233531,11.4672125 C50.5110721,11.4672125 51.6811446,11.0058819 52.5911304,10.2434624 L55.2120293,12.8645577 C55.3023284,12.9545346 55.4202895,13 55.5385685,13 C55.6565297,13 55.7748087,12.9545346 55.8647899,12.8645577 C56.04507,12.6846038 56.04507,12.3924171 55.8647899,12.2118274 L53.243573,9.59041412 C54.0063458,8.68110643 54.4673799,7.51045227 54.4673799,6.23360623 C54.4673799,3.34766712 52.1196039,1 49.2338489,1 C46.3480939,1 44,3.34734918 44,6.23360623 C44,9.11954535 46.347776,11.4672125 49.233531,11.4672125" id="Fill-1"></path>
            </g>
        </g>
    </g>
</svg>