<svg xmlns="http://www.w3.org/2000/svg" width="45.595" height="68.308" viewBox="0 0 45.595 68.308">
  <g id="noun_Book_947859" transform="translate(-27.203 -15.846)">
    <path id="Path_1" data-name="Path 1" d="M71.285,15.846H33.41A6.213,6.213,0,0,0,27.2,22.053V67.711a6.217,6.217,0,0,0,6.2,6.209h2.082v8.723A1.512,1.512,0,0,0,38.1,83.675l2.68-2.861,2.678,2.861a1.514,1.514,0,0,0,2.617-1.035V73.917H71.286A1.513,1.513,0,0,0,72.8,72.4V17.359A1.513,1.513,0,0,0,71.285,15.846ZM34.922,18.871h34.85V61.506H34.922V18.871Zm-3.026.383V61.7a6.2,6.2,0,0,0-1.67.693V22.052A3.192,3.192,0,0,1,31.9,19.254ZM33.41,70.893h0a3.182,3.182,0,1,1,0-6.365H69.771V66.2H33.431a1.514,1.514,0,0,0,0,3.027h2.057v1.668Zm9.641,7.92-1.164-1.245a1.513,1.513,0,0,0-2.209,0L38.51,78.813V69.224h4.541Zm3.027-9.588H69.771v1.668H46.078Z" fill="#084fa9"/>
  </g>
</svg>
